<svg xmlns="http://www.w3.org/2000/svg" xmlns:xlink="http://www.w3.org/1999/xlink" version="1.1" x="0px" y="0px" viewBox="0 0 100 125" enable-background="new 0 0 100 100" xml:space="preserve"><path fill="#000000" d="M78.805,3.756C65.479-2.922,49.278,2.46,42.591,15.78l-8.185,16.321l11.557,5.79l8.182-16.319  c3.49-6.929,11.926-9.73,18.866-6.266c6.931,3.495,9.734,11.927,6.266,18.873L71.09,50.493l11.555,5.796l8.184-16.319  C97.508,26.647,92.127,10.439,78.805,3.756z M56.737,79.114c-3.486,6.937-11.923,9.734-18.866,6.268  c-6.93-3.49-9.732-11.921-6.265-18.867l7.89-15.733l-11.551-5.797l-7.891,15.739c-6.678,13.324-1.299,29.525,12.023,36.214  c13.324,6.675,29.531,1.296,36.215-12.022l7.889-15.74l-11.555-5.791L56.737,79.114z"/><text x="0" y="115" fill="#000000" font-size="5px" font-weight="bold" font-family="'Helvetica Neue', Helvetica, Arial-Unicode, Arial, Sans-serif">Created by iconoci</text><text x="0" y="120" fill="#000000" font-size="5px" font-weight="bold" font-family="'Helvetica Neue', Helvetica, Arial-Unicode, Arial, Sans-serif">from the Noun Project</text></svg>